<svg xmlns="http://www.w3.org/2000/svg" width="72" height="72" viewBox="25 50 72 72">
    <path fill="#d63d37" d="M74.867 112.88s7.952-14.312 11.528-20.354a35.156 35.156 0 0 0-5.829-15.047c-2.555 3.4-6.98 9.307-8.63 11.552-2.221 3.021 2.523 6.466 4.629 4.286 1.478-1.527 3.062-3.356 3.062-3.356l1.47 2.106-5.715 5.715-17.66-10.922-1.9.882 3.666 6.834-1.448 1.371-6.393-7.136a25.988 25.988 0 0 1 1.021-4.082c10.116.073 11.43-4.2 11.43-9.266-1.029 0-11.675-.425-17.961-.678L37.27 89.35l10.973 18.778-.073 12.532C12.793 108.5 19.137 51.109 61.681 51.109c42.667 0 46.7 58.146 13.332 69.789zM53.884 62.106l-6.14 10.042 8.123.106 5.968-8.393a34.731 34.731 0 0 0-7.952-1.755zM64.5 64.874l-5.6 7.789 8.719.229 3.715-4.343a39.655 39.655 0 0 0-6.793-3.674zm8.981 5.176c-2.4 3.16-7.838 10.369-9.585 13.063-2.27 3.437 3.445 7.585 5.895 4.694 1.633-1.919 6.85-9.332 9.087-12.508a34.412 34.412 0 0 0-5.399-5.249z"/>
</svg>
