<svg xmlns="http://www.w3.org/2000/svg" width="72" height="72" viewBox="0 0 72 72">
    <defs>
        <clipPath id="s2jqd8ynga">
            <path fill="#d63d37" d="M0 0H72V72H0z" transform="translate(1266 2746)"/>
        </clipPath>
    </defs>
    <g clip-path="url(#s2jqd8ynga)" transform="translate(-1266 -2746)">
        <path fill="#d63d37" fill-rule="evenodd" d="M84.264 103.283A25.147 25.147 0 0 0 85.5 98.6l9.949 1.015a41.6 41.6 0 0 1-.531 7.365zm1.586-13.049l8-1.5a39.8 39.8 0 0 1 1.268 6l-9.188-.071a37.434 37.434 0 0 0-.111-4.432zm-.9-5.859c-.206-.381-.42-.793-.65-1.134l5.129-4.218a35.4 35.4 0 0 1 2.648 4.884l-6.747 2.505c-.119-.714-.254-1.387-.412-2.037zm-19.958 2.474l12.7-11.17a28.271 28.271 0 0 0-17.885-5.914c-24.441 0-36.024 22.769-30.736 40.432l6.461-1.268 1.871 4.13-9.608 5.272c-11.472-21.461 0-54.416 32.123-54.416 9.418 0 16.958 2.87 22.626 7.452l4.051-3.56 1.586 3.441-16.1 22.539zm-5.383 3.908c12.3 0 12.225 18.8.214 18.8-13.192 0-12.6-18.8-.246-18.8zM93.81 112a38.053 38.053 0 0 1-2.64 6.6l-13.113-7.024a15.856 15.856 0 0 0 4.6-4.868z" transform="translate(1242.543 2690.743)"/>
    </g>
</svg>
