<svg xmlns="http://www.w3.org/2000/svg" width="72" height="72" viewBox="0 0 72 72">
    <defs>
        <clipPath id="t3pqzc51fa">
            <path fill="#d63d37" d="M0 0H72V72H0z" transform="translate(1266 2746)"/>
        </clipPath>
    </defs>
    <g clip-path="url(#t3pqzc51fa)" transform="translate(-1266 -2746)">
        <path fill="#d63d37" fill-rule="evenodd" d="M56.212 98c-10.7.925-25.922-6.909-31.182-14.617 0-1.754.765-23.675.765-23.675l19.536-5.3-.032-2.153a34.59 34.59 0 0 0-1.468-7.086l11.614 2.048a18.457 18.457 0 0 0-1.109 5.292c.056 5.052.149 10.223.149 10.223L51.3 65.078l-5.783-.053s-.053-2.771-.114-6.25L29.864 63.1c3.888 5.218 18.335 11 23.922 10.792L71.915 51.39l-13.707 3.818.238-4.349 14.576-3.952 2.85 1.939.414 24.7zm-1.052-4.762c4.2-4.2 17.409-20.695 17.409-20.695l-.142-7.264a1.909 1.909 0 0 1-1.414.762c-.868-.1-1.627 2.775-2.214 5.565-.639 3.182-3.374 6.816-5.91 6.2-1.711-.4-3.645 2.868-4.85 6.614-1.34 4.2-5.749 5.351-7.624 2.784-2.062-2.825-4.721-5.149-7.249-2.8-2.394 2.221-7.971.185-8.993-4.3a5.77 5.77 0 0 0-4.672-4.65c0 3.664.006 7.423.006 7.423S43.072 95.138 55.16 93.238zM42.894 37.611c0-2.658.789-7.332 7.679-11.534-.939 7.371 5.237 6.465 5.237 12.535 0 6.453-12.916 6.252-12.916-1.001z" transform="translate(1251.342 2719.923)"/>
    </g>
</svg>
