<svg xmlns="http://www.w3.org/2000/svg" width="72" height="72" viewBox="0 0 72 72">
    <defs>
        <clipPath id="saeh3rvbda">
            <path fill="#d63d37" d="M0 0H72V72H0z" transform="translate(1266 2746)"/>
        </clipPath>
    </defs>
    <g clip-path="url(#saeh3rvbda)" transform="translate(-1266 -2746)">
        <path fill="#d63d37" fill-rule="evenodd" d="M59.321 78.951s-4.477 1.679-5.1-2.373-2.448-16.6-2.448-16.6l-1.571.091s-1.577 13.571-1.846 16.805c-.3 3.643-4.725 2.228-4.725 2.228l.4-24.952s-3.955-3.369-3.455-7.593c.129-1.076.183-1.926.183-1.926l19.506-3.912s.651 4.154.813 5.58c.538 4.445-3.767 7.641-3.767 7.641zM36.683 42.037l.4 37.065s-4.429 1.415-4.73-2.228c-.264-3.229-1.84-16.805-1.84-16.805l-1.571-.091s-1.819 12.489-2.454 16.6-5.1 2.373-5.1 2.373l2.041-25.011s-4.267-3.2-3.767-7.641c.361-3.261 1.125-7.356 1.125-7.356s3.616-3.229 11.58-3.229h24.791a1.964 1.964 0 0 1 1.232 3.056zm8.728-13.367c0-7.189 9.514-6.107 8.712.285-.775 6.156-8.712 6.99-8.712-.285zm-20.2.285c-.8-6.393 8.69-7.474 8.69-.285 0 7.275-7.916 6.441-8.69.285zm3.81-10.079l.392-9.076 4.3.678-2.691 8.744zM19.485 8.653l4.45-1.275 2.508 11.731-2.034.963zm1.9 14l-7.1-3.638 2.561-3.568 5.454 5.539z" transform="translate(1264.291 2738.623)"/>
    </g>
</svg>
