<svg xmlns="http://www.w3.org/2000/svg" width="36" height="36" viewBox="0 0 36 36">
    <g transform="translate(-32 -32)">
        <path d="M57.5 35a7.523 7.523 0 0 1 7.5 7.5v15a7.523 7.523 0 0 1-7.5 7.5h-15a7.523 7.523 0 0 1-7.5-7.5v-15a7.523 7.523 0 0 1 7.5-7.5h15m0-3h-15A10.531 10.531 0 0 0 32 42.5v15A10.531 10.531 0 0 0 42.5 68h15A10.531 10.531 0 0 0 68 57.5v-15A10.531 10.531 0 0 0 57.5 32z"/>
        <path d="M351.58 111.17a2.245 2.245 0 1 1 1.592-.658 2.25 2.25 0 0 1-1.592.658z" transform="translate(-291.83 -68.67)"/>
        <path d="M153 147a6 6 0 1 1-6 6 6 6 0 0 1 6-6m0-3a9 9 0 1 0 9 9 9 9 0 0 0-9-9z" transform="translate(-103 -103)"/>
    </g>
</svg>
