<svg xmlns="http://www.w3.org/2000/svg" width="24" height="24" viewBox="0 0 24 24">
    <g transform="translate(-318 -560)">
        <path fill="transparent" d="M17.658 32.235a12.393 12.393 0 0 1-6.64-1.714l.579-1.273a8.779 8.779 0 0 0 .766.442l.524-1.062c-6.46-3.485-4.536-14.5 3.841-14.5a8.293 8.293 0 0 1 3.043.546L20.3 13.6a8.933 8.933 0 0 0-1.394-.421l.679-1.492C30.324 14.4 29.7 32.235 17.658 32.235zm-5.182-5.665a10.678 10.678 0 0 1 .83-5.438L10.8 19.887a6.418 6.418 0 0 0 1.676 6.683zm4.263-10.981a5.959 5.959 0 0 0-5.239 2.768l2.521 1.357a11.245 11.245 0 0 1 3.986-4.014 7.332 7.332 0 0 0-1.268-.112zm-2.613 12.058a8.686 8.686 0 0 0 4.18-4.032l-3.666-1.822a8.114 8.114 0 0 0-.514 5.854zm5.622-11.084a8.676 8.676 0 0 0-4.393 3.867l3.566 1.92a10.565 10.565 0 0 0 .826-5.787zm-.039 7.749a11.186 11.186 0 0 1-3.622 3.83 9.422 9.422 0 0 0 1.225.078 5.389 5.389 0 0 0 4.879-2.675zm3 .079a7.068 7.068 0 0 0-1.467-7.011 11.57 11.57 0 0 1-.926 5.722zm-1.484-8.938c5.417 3.752 4.164 14.221-3.795 14.221a10.268 10.268 0 0 1-3.305-.508l-.542 1.047a11.983 11.983 0 0 0 3.952.621c9.347 0 10.75-12.252 4.253-16.469zm-7.9 18.71l3.05-.062.076-.888 2.17-.049v.891L21.584 34l.243 1.694-8.663-.081z" transform="translate(311.886 548.311)"/>
    </g>
</svg>
