<svg xmlns="http://www.w3.org/2000/svg" width="200" height="200" viewBox="0 0 200 200">
    <path fill="#8dc1fb" fill-rule="evenodd" d="M50 0h51L51 200H0z"/>
    <path fill="#d63d37" fill-rule="evenodd" d="M589 0h51l-50 200h-51z" transform="translate(-440)"/>
    <path fill="#2d568a" fill-rule="evenodd" d="M320 0h50l-50 200h-50z" transform="translate(-220)"/>
    <path fill="#fff" fill-rule="evenodd" d="M203.169 489.678h117.318v.755H203.169zm5.762-18.546h.51a19.614 19.614 0 0 1 2.529.11 3 3 0 0 1 1.1.34 1.194 1.194 0 0 1 .515.724 4.7 4.7 0 0 1 .163 1.4 2.334 2.334 0 0 1-.7 2q-.7.5-3.923.5h-9.2v-5.08h9zm6.209 4.778a3.956 3.956 0 0 0 .575-2.419 5.907 5.907 0 0 0-.32-2.2 2.555 2.555 0 0 0-1.058-1.212 4.573 4.573 0 0 0-1.688-.559 22.42 22.42 0 0 0-3.186-.165h-11.539v16.337h11.159q4.385 0 5.775-.812a3.159 3.159 0 0 0 1.389-2.984v-1.734a3.121 3.121 0 0 0-.749-2.326 2.782 2.782 0 0 0-1.015-.636 4.086 4.086 0 0 0-1.438-.23 3.551 3.551 0 0 0 2.1-1.06zm-1.531 2.765q.706.554.706 2.474a2.526 2.526 0 0 1-.733 2.15 5.917 5.917 0 0 1-3.077.527h-10.573v-5.7H210.5a5.652 5.652 0 0 1 3.109.549zm15.364-7.7l5.494 9.4h-10.9zm-8.447 14.715l2.053-3.6h12.869l2.12 3.6h2.123l-9.4-16.337h-2.671l-9.378 16.337zm28.171 0l8.977-16.337h-2.286l-8 14.6-7.961-14.6h-2.269l8.974 16.337h2.568zm17.179-14.718l5.494 9.4h-10.9zm-8.447 14.715l2.052-3.6h12.869l2.12 3.6h2.124l-9.4-16.337h-2.67l-9.378 16.337zm37.261-14a2.675 2.675 0 0 1 .711 2.189v.779a2.671 2.671 0 0 1-.711 2.2 5.184 5.184 0 0 1-2.882.543h-10.181v-6.265h10.181a5.1 5.1 0 0 1 2.882.554zm-13.064 7.6h9.8a12.1 12.1 0 0 1 2.084.143 2.431 2.431 0 0 1 1.129.439 2.778 2.778 0 0 1 .695 2.183v3.643h2.008v-4.049a3.387 3.387 0 0 0-.678-2.238 2.841 2.841 0 0 0-1.992-.944 4.2 4.2 0 0 0 2.225-1.053 3.254 3.254 0 0 0 .619-2.205v-1.964a3.386 3.386 0 0 0-1.259-3.056q-1.259-.828-5.1-.828h-11.539v16.337h2.008v-6.407zm21.758-9.93h-2.007v16.337h2.008v-16.339zm13.824 1.62l5.494 9.4H311.8zm-8.447 14.715l2.052-3.6h12.869l2.12 3.6h2.124l-9.4-16.337h-2.671l-9.378 16.337zM318.3 499.6a6.2 6.2 0 0 1-3.082.5h-5.588v3.9h-1.214v-9.885h6.8a6.242 6.242 0 0 1 3.077.5 2.061 2.061 0 0 1 .752 1.849v1.295a2.056 2.056 0 0 1-.746 1.832zm-.555-2.742a1.616 1.616 0 0 0-.43-1.334 3.177 3.177 0 0 0-1.75-.325h-5.935v3.791h5.93a3.238 3.238 0 0 0 1.747-.319 1.605 1.605 0 0 0 .434-1.341v-.472zm-15.884 7.15h-1.214v-8.783H295.8v-1.1h10.9v1.1h-4.84v8.783zm-8.988-4.554h-8.86v4.554H282.8v-9.885h1.214v4.255h8.86v-4.255h1.214v9.885h-1.218v-4.554zm-21.549-5.331h9.635v1.1h-8.449v3.1h8.09v1.1h-8.09v3.479h8.446v1.1h-9.635v-9.885zm-2.563 9.741h-11.23v-9.844h1.289v8.73h8.651v-8.73h1.289v8.73h1.287v2.6h-1.289zm-13.921-.427a2.837 2.837 0 0 1-1.214.538 7.566 7.566 0 0 1-.946.113q-.585.04-1.379.04h-3.251a12.423 12.423 0 0 1-2.328-.156 2.849 2.849 0 0 1-1.212-.534 2.37 2.37 0 0 1-.752-1.112 5.739 5.739 0 0 1-.24-1.822v-2.7a6.774 6.774 0 0 1 .227-1.965 2.368 2.368 0 0 1 .752-1.148 2.955 2.955 0 0 1 1.225-.524 11.9 11.9 0 0 1 2.315-.166h3.263a12.271 12.271 0 0 1 2.305.159 2.951 2.951 0 0 1 1.252.541 2.276 2.276 0 0 1 .722 1.109 6.113 6.113 0 0 1 .24 1.875v2.755a6.119 6.119 0 0 1-.237 1.872 2.326 2.326 0 0 1-.743 1.122zm-.334-3.28v-2.568a5.7 5.7 0 0 0-.082-1.145 1.661 1.661 0 0 0-.286-.634 1.611 1.611 0 0 0-.808-.544 4.835 4.835 0 0 0-1.452-.173h-4.42a5.048 5.048 0 0 0-1.465.163 1.544 1.544 0 0 0-.795.554 1.7 1.7 0 0 0-.3.677 6.594 6.594 0 0 0-.085 1.255v2.6a6.785 6.785 0 0 0 .082 1.278 1.563 1.563 0 0 0 1.107 1.2 4.823 4.823 0 0 0 1.451.173h4.42a5.042 5.042 0 0 0 1.465-.163 1.542 1.542 0 0 0 .795-.554 1.634 1.634 0 0 0 .282-.644 5.637 5.637 0 0 0 .085-1.135v-.333zm-17.245 3.85h-1.214v-8.782H231.2v-1.1h10.9v1.1h-4.84v8.783zm-11.626 0h-6.751v-9.884h6.981a13.582 13.582 0 0 1 1.928.1 2.766 2.766 0 0 1 1.021.339 1.546 1.546 0 0 1 .64.734 3.576 3.576 0 0 1 .194 1.331 2.392 2.392 0 0 1-.348 1.464 2.147 2.147 0 0 1-1.268.641 2.47 2.47 0 0 1 .87.14 1.683 1.683 0 0 1 .614.385 1.887 1.887 0 0 1 .453 1.407v1.049a1.912 1.912 0 0 1-.841 1.806 8.025 8.025 0 0 1-3.494.491zm2.4-6.038a1.412 1.412 0 0 0 .424-1.212 2.839 2.839 0 0 0-.1-.85.722.722 0 0 0-.312-.438 1.814 1.814 0 0 0-.667-.206 11.911 11.911 0 0 0-1.53-.067h-5.75v3.074h5.563a5.346 5.346 0 0 0 2.376-.3zm.338 1.792a3.422 3.422 0 0 0-1.878-.335h-6.4v3.452h6.4a3.579 3.579 0 0 0 1.862-.319 1.528 1.528 0 0 0 .443-1.3q0-1.161-.427-1.5zm-13.62 2.068h-7.785l-1.242 2.176h-1.382l5.674-9.885h1.615l5.688 9.885h-1.285zm-3.916-6.727l-3.271 5.685h6.6z" transform="translate(-162.924 -381.35)"/>
</svg>
