<svg xmlns="http://www.w3.org/2000/svg" width="24" height="24" viewBox="0 0 24 24">
    <defs>
        <clipPath id="kmfdr8nwza">
            <path fill="transparent" d="M0 0H24V24H0z" transform="translate(1279 5619)"/>
        </clipPath>
    </defs>
    <g clip-path="url(#kmfdr8nwza)" transform="translate(-1279 -5619)">
        <path fill="transparent" fill-rule="evenodd" d="M29.776 37.237l-1.267 4.818-1.682-.035.06-2.489a9.986 9.986 0 0 1-4.448.972 13.046 13.046 0 0 1-5.974-1.303l.044 2.824-1.715.035-1.382-5.259a11.1 11.1 0 0 1-.112-13.7l1.087-5.042 1.756.059.039 2.506a10.689 10.689 0 0 1 5.3-1.315 10.661 10.661 0 0 1 5.86 1.613l.068-2.8 1.771-.059 1.1 5.817a11.342 11.342 0 0 1 1.442 3.32h1.95l.078 5.184h-1.817a10.442 10.442 0 0 1-2.158 4.854zM21.487 21.16c-11.469 0-12.444 17.7.811 17.7 11.175-.002 10.881-17.7-.811-17.7zm7.633 9.7l-2.523.454-.226-2.109h2.749zm-8.3.753l-3.371-3.462.739-.96 3.243 1.837L26.872 25l.6.709-5.289 5.6zm1-8.889l1.58-.119.11 2.9-1.869-.074zm-2.073 0h1.193l.226 2.783-1.645-.227zm-5.547 8.92l-.226-2.276 3.075.43-.068 1.552zm8.364 5.831l-1.651.227-.452-2.464h2.1v2.237z" transform="translate(1268.632 5600.945)"/>
    </g>
</svg>
