<svg xmlns="http://www.w3.org/2000/svg" width="20" height="20" viewBox="0 0 20 20">
    <g transform="translate(-521 -535)">
        <path fill="#9a059a" d="M17.445 1.949c-.5-.457-2.5-1.914-6.98-1.933 0 0-5.277-.316-7.847 2.043C1.189 3.488.685 5.586.63 8.183s-.121 7.464 4.57 8.784v2.015s-.031.816.508.98c.648.2 1.031-.418 1.652-1.086.34-.367.808-.906 1.164-1.316a18.149 18.149 0 0 0 5.956-.437c.648-.211 4.316-.68 4.91-5.546.617-5.023-.3-8.194-1.945-9.628zm.543 9.261c-.5 4.062-3.476 4.32-4.023 4.5a16.792 16.792 0 0 1-5.124.437s-2.031 2.449-2.664 3.086c-.207.207-.434.187-.43-.223 0-.27.016-3.347.016-3.347-3.976-1.1-3.742-5.245-3.7-7.413s.454-3.95 1.665-5.145c2.172-1.972 6.655-1.679 6.655-1.679 3.785.016 5.6 1.156 6.019 1.539 1.394 1.2 2.105 4.054 1.586 8.245zm-5.43-3.156a.252.252 0 0 1-.5.023 1.208 1.208 0 0 0-1.273-1.324.252.252 0 0 1 .027-.5 1.7 1.7 0 0 1 1.746 1.801zm.793.441a2.918 2.918 0 0 0-2.961-3.1.253.253 0 0 1 .035-.5 3.421 3.421 0 0 1 3.429 3.613.252.252 0 0 1-.5-.012zm1.836.523a.252.252 0 0 1-.5 0 4.6 4.6 0 0 0-4.722-4.932.252.252 0 0 1 0-.5 5.109 5.109 0 0 1 5.222 5.433zm-.441 3.832v.008c-.422.742-1.211 1.562-2.023 1.3l-.008-.012a15.013 15.013 0 0 1-3.992-2.206 10.211 10.211 0 0 1-1.656-1.656 12.674 12.674 0 0 1-1.2-1.82 11.671 11.671 0 0 1-1.018-2.175c-.262-.812.555-1.6 1.3-2.023h.008a.711.711 0 0 1 .933.152s.484.578.691.863c.2.266.457.691.594.93A.816.816 0 0 1 8.23 7.25l-.469.375a.687.687 0 0 0-.207.547 4.891 4.891 0 0 0 3.293 3.293.687.687 0 0 0 .547-.207l.375-.469a.816.816 0 0 1 1.039-.145 10.12 10.12 0 0 1 1.792 1.284.7.7 0 0 1 .148.922z" transform="translate(520.899 534.998)"/>
    </g>
</svg>
