<svg xmlns="http://www.w3.org/2000/svg" width="36" height="36" viewBox="0 0 36 36">
    <g transform="translate(-602 -805)">
        <path d="M36.232 8.179a4.523 4.523 0 0 0-3.183-3.2c-2.807-.757-14.065-.757-14.065-.757s-11.257 0-14.065.757a4.524 4.524 0 0 0-3.183 3.2C.984 11 .984 16.9.984 16.9s0 5.9.752 8.721a4.456 4.456 0 0 0 3.183 3.152c2.808.757 14.065.757 14.065.757s11.257 0 14.065-.757a4.456 4.456 0 0 0 3.183-3.152c.752-2.826.752-8.721.752-8.721s0-5.9-.752-8.721zM15.3 22.253V11.548l9.412 5.352-9.412 5.353z" transform="translate(601.016 806.125)"/>
    </g>
</svg>
